<svg width="48" height="48" viewBox="0 0 48 48" fill="none" xmlns="http://www.w3.org/2000/svg">
<path d="M0 5.625C0 2.5184 2.5184 0 5.625 0H42.375C45.4816 0 48 2.5184 48 5.625V42.375C48 45.4816 45.4816 48 42.375 48H5.625C2.5184 48 0 45.4816 0 42.375V5.625Z" fill="#FCFCFC"/>
<path fill-rule="evenodd" clip-rule="evenodd" d="M18 7.5C18 8.12132 17.4963 8.625 16.875 8.625H11.25C9.80025 8.625 8.625 9.80025 8.625 11.25V16.875C8.625 17.4963 8.12132 18 7.5 18C6.87868 18 6.375 17.4963 6.375 16.875V11.25C6.375 8.55761 8.55761 6.375 11.25 6.375H16.875C17.4963 6.375 18 6.87868 18 7.5Z" fill="#435A7D"/>
<path fill-rule="evenodd" clip-rule="evenodd" d="M30 40.5C30 39.8787 30.5037 39.375 31.125 39.375H36.75C38.1997 39.375 39.375 38.1997 39.375 36.75V31.125C39.375 30.5037 39.8787 30 40.5 30C41.1213 30 41.625 30.5037 41.625 31.125V36.75C41.625 39.4424 39.4424 41.625 36.75 41.625H31.125C30.5037 41.625 30 41.1213 30 40.5Z" fill="#435A7D"/>
<path fill-rule="evenodd" clip-rule="evenodd" d="M7.5 30C8.12132 30 8.625 30.5037 8.625 31.125V36.75C8.625 38.1997 9.80025 39.375 11.25 39.375H16.875C17.4963 39.375 18 39.8787 18 40.5C18 41.1213 17.4963 41.625 16.875 41.625H11.25C8.55761 41.625 6.375 39.4424 6.375 36.75V31.125C6.375 30.5037 6.87868 30 7.5 30Z" fill="#435A7D"/>
<path fill-rule="evenodd" clip-rule="evenodd" d="M40.5 18C39.8787 18 39.375 17.4963 39.375 16.875L39.375 11.25C39.375 9.80025 38.1997 8.625 36.75 8.625L31.125 8.625C30.5037 8.625 30 8.12132 30 7.5C30 6.87868 30.5037 6.375 31.125 6.375L36.75 6.375C39.4424 6.375 41.625 8.55761 41.625 11.25L41.625 16.875C41.625 17.4963 41.1213 18 40.5 18Z" fill="#435A7D"/>
<path fill-rule="evenodd" clip-rule="evenodd" d="M33.375 18H13.875C12.6324 18 11.625 19.0074 11.625 20.25V21.75H35.625V20.25C35.625 19.0074 34.6176 18 33.375 18ZM13.875 16.5C11.8039 16.5 10.125 18.1789 10.125 20.25V23.25H37.125V20.25C37.125 18.1789 35.4461 16.5 33.375 16.5H13.875Z" fill="#435A7D"/>
<path fill-rule="evenodd" clip-rule="evenodd" d="M10.125 26.25C10.125 28.7353 12.1397 30.75 14.625 30.75H36.375C36.7892 30.75 37.125 30.4142 37.125 30C37.125 29.5858 36.7892 29.25 36.375 29.25H14.625C12.9681 29.25 11.625 27.9069 11.625 26.25V22.875C11.625 22.4608 11.2892 22.125 10.875 22.125C10.4608 22.125 10.125 22.4608 10.125 22.875V26.25Z" fill="#435A7D"/>
<path d="M23.25 16.5H24.75V23.25H23.25V16.5Z" fill="#435A7D"/>
<path d="M19.125 30C19.125 31.2426 18.1176 32.25 16.875 32.25C15.6324 32.25 14.625 31.2426 14.625 30C14.625 28.7574 15.6324 27.75 16.875 27.75C18.1176 27.75 19.125 28.7574 19.125 30Z" fill="#435A7D"/>
<path d="M33.375 30C33.375 31.2426 32.3676 32.25 31.125 32.25C29.8824 32.25 28.875 31.2426 28.875 30C28.875 28.7574 29.8824 27.75 31.125 27.75C32.3676 27.75 33.375 28.7574 33.375 30Z" fill="#435A7D"/>
</svg>
