<svg width="39" height="37" viewBox="0 0 39 37" fill="none" xmlns="http://www.w3.org/2000/svg">
<path d="M5.616 1.566H5.4C4.332 1.566 3.498 1.836 2.898 2.376C2.31 2.904 2.016 3.846 2.016 5.202C2.016 5.646 2.058 5.958 2.142 6.138C2.226 6.306 2.268 6.402 2.268 6.426C1.62 6.426 1.134 6.294 0.81 6.03C0.498 5.754 0.342 5.304 0.342 4.68C0.342 3.828 0.552 3.054 0.972 2.358C1.392 1.65 2.058 1.08 2.97 0.647999C3.894 0.216 5.064 0 6.48 0C7.272 0 8.124 0.0719998 9.036 0.215999C9.804 0.348 10.488 0.414 11.088 0.414C11.856 0.414 12.552 0.288 13.176 0.0359995C13.152 0.816 12.954 1.392 12.582 1.764C12.21 2.136 11.658 2.322 10.926 2.322C10.542 2.322 10.158 2.292 9.774 2.232C9.39 2.172 8.844 2.07 8.136 1.926L5.652 13.482H3.06L5.616 1.566Z" fill="#160F29"/>
<path d="M11.06 13.59C10.376 13.59 9.80602 13.356 9.35002 12.888C8.89402 12.42 8.66602 11.688 8.66602 10.692C8.66602 9.804 8.84002 8.874 9.18802 7.902C9.54802 6.918 10.076 6.09 10.772 5.418C11.48 4.734 12.32 4.392 13.292 4.392C13.784 4.392 14.15 4.476 14.39 4.644C14.63 4.812 14.75 5.034 14.75 5.31V5.436L14.948 4.482H17.54L16.244 10.602C16.196 10.782 16.172 10.974 16.172 11.178C16.172 11.694 16.418 11.952 16.91 11.952C17.246 11.952 17.534 11.796 17.774 11.484C18.026 11.172 18.224 10.764 18.368 10.26H19.124C18.68 11.556 18.128 12.438 17.468 12.906C16.82 13.362 16.166 13.59 15.506 13.59C15.002 13.59 14.594 13.452 14.282 13.176C13.982 12.888 13.802 12.474 13.742 11.934C13.394 12.426 13.004 12.828 12.572 13.14C12.152 13.44 11.648 13.59 11.06 13.59ZM12.23 11.844C12.53 11.844 12.824 11.706 13.112 11.43C13.412 11.142 13.616 10.752 13.724 10.26L14.588 6.192C14.588 6.036 14.528 5.886 14.408 5.742C14.288 5.586 14.102 5.508 13.85 5.508C13.37 5.508 12.938 5.79 12.554 6.354C12.17 6.906 11.87 7.578 11.654 8.37C11.438 9.15 11.33 9.84 11.33 10.44C11.33 11.04 11.414 11.424 11.582 11.592C11.762 11.76 11.978 11.844 12.23 11.844Z" fill="#160F29"/>
<path d="M25.1426 13.59C24.3986 13.59 23.8346 13.416 23.4506 13.068C23.0666 12.708 22.8746 12.198 22.8746 11.538C22.8746 11.25 22.9106 10.938 22.9826 10.602L23.1266 9.9C23.1746 9.696 23.1986 9.474 23.1986 9.234C23.1986 8.658 22.9826 8.37 22.5506 8.37C22.3586 8.37 22.1546 8.424 21.9386 8.532C21.7346 8.64 21.4946 8.808 21.2186 9.036L20.2826 13.482H17.6906L20.3006 1.242L22.9646 0.881999L21.6146 7.218L25.0886 4.482H26.8706L23.2706 6.984C23.4506 6.936 23.6486 6.912 23.8646 6.912C24.5126 6.912 25.0046 7.11 25.3406 7.506C25.6766 7.902 25.8446 8.406 25.8446 9.018C25.8446 9.27 25.8206 9.498 25.7726 9.702L25.5746 10.602C25.5146 10.818 25.4846 11.01 25.4846 11.178C25.4846 11.622 25.7186 11.844 26.1866 11.844C26.5466 11.844 26.8346 11.718 27.0506 11.466C27.2666 11.202 27.4826 10.8 27.6986 10.26H28.4546C27.7106 12.48 26.6066 13.59 25.1426 13.59Z" fill="#160F29"/>
<path d="M30.229 13.59C29.353 13.59 28.669 13.362 28.177 12.906C27.685 12.438 27.439 11.712 27.439 10.728C27.439 9.9 27.601 8.988 27.925 7.992C28.249 6.996 28.777 6.138 29.509 5.418C30.241 4.686 31.171 4.32 32.299 4.32C33.619 4.32 34.279 4.896 34.279 6.048C34.279 6.72 34.087 7.338 33.703 7.902C33.319 8.466 32.809 8.922 32.173 9.27C31.537 9.606 30.859 9.798 30.139 9.846C30.115 10.11 30.103 10.29 30.103 10.386C30.103 11.382 30.475 11.88 31.219 11.88C31.555 11.88 31.915 11.79 32.299 11.61C32.683 11.43 33.031 11.202 33.343 10.926C33.019 12.702 31.981 13.59 30.229 13.59ZM30.265 8.982C30.721 8.97 31.147 8.82 31.543 8.532C31.951 8.244 32.275 7.878 32.515 7.434C32.767 6.978 32.893 6.504 32.893 6.012C32.893 5.52 32.743 5.274 32.443 5.274C32.023 5.274 31.603 5.658 31.183 6.426C30.775 7.182 30.469 8.034 30.265 8.982Z" fill="#160F29"/>
<path d="M2.394 36.59C1.71 36.59 1.14 36.356 0.684 35.888C0.228 35.42 0 34.688 0 33.692C0 32.804 0.174 31.874 0.522 30.902C0.882 29.918 1.41 29.09 2.106 28.418C2.814 27.734 3.654 27.392 4.626 27.392C5.118 27.392 5.484 27.476 5.724 27.644C5.964 27.812 6.084 28.034 6.084 28.31V28.436L6.282 27.482H8.874L7.578 33.602C7.53 33.782 7.506 33.974 7.506 34.178C7.506 34.418 7.56 34.592 7.668 34.7C7.788 34.796 7.98 34.844 8.244 34.844C8.412 34.844 8.544 34.82 8.64 34.772C8.376 35.444 8.124 35.918 7.884 36.194C7.644 36.458 7.296 36.59 6.84 36.59C6.348 36.59 5.946 36.446 5.634 36.158C5.334 35.858 5.148 35.444 5.076 34.916C4.344 36.032 3.45 36.59 2.394 36.59ZM3.564 34.844C3.864 34.844 4.158 34.706 4.446 34.43C4.746 34.142 4.95 33.752 5.058 33.26L5.922 29.192C5.922 29.036 5.862 28.886 5.742 28.742C5.622 28.586 5.436 28.508 5.184 28.508C4.704 28.508 4.272 28.79 3.888 29.354C3.504 29.906 3.204 30.578 2.988 31.37C2.772 32.15 2.664 32.84 2.664 33.44C2.664 34.04 2.748 34.424 2.916 34.592C3.096 34.76 3.312 34.844 3.564 34.844Z" fill="#160F29"/>
<path d="M19.5047 36.788C19.0247 36.788 18.6047 36.686 18.2447 36.482C17.8967 36.29 17.7227 35.948 17.7227 35.456C17.7227 35.144 17.8007 34.796 17.9567 34.412C18.1727 34.652 18.3707 34.82 18.5507 34.916C18.7427 35.012 18.9467 35.06 19.1627 35.06C19.7627 35.06 20.2067 34.724 20.4947 34.052C20.7947 33.38 20.9447 32.636 20.9447 31.82C20.9447 30.296 20.3747 29.534 19.2347 29.534C18.9107 29.534 18.6347 29.552 18.4067 29.588L16.9307 36.482H14.3387L16.7867 25.034L19.4507 24.674L18.6047 28.67H18.7127C19.1687 28.67 19.5947 28.526 19.9907 28.238C20.3867 27.938 20.7047 27.566 20.9447 27.122C21.1847 26.666 21.3047 26.21 21.3047 25.754C21.3047 25.202 21.1067 24.74 20.7107 24.368C20.3267 23.996 19.7327 23.81 18.9287 23.81C18.1967 23.81 17.4827 23.978 16.7867 24.314C16.0907 24.638 15.5207 25.13 15.0767 25.79C14.6447 26.45 14.4287 27.248 14.4287 28.184C14.4287 28.628 14.4707 28.94 14.5547 29.12C14.6387 29.288 14.6807 29.384 14.6807 29.408C14.0447 29.408 13.5647 29.282 13.2407 29.03C12.9167 28.766 12.7547 28.34 12.7547 27.752C12.7547 26.936 13.0607 26.162 13.6727 25.43C14.2847 24.698 15.0947 24.11 16.1027 23.666C17.1107 23.21 18.1727 22.982 19.2887 22.982C20.1287 22.982 20.8367 23.114 21.4127 23.378C21.9887 23.642 22.4147 23.99 22.6907 24.422C22.9787 24.854 23.1227 25.328 23.1227 25.844C23.1227 26.396 22.9667 26.93 22.6547 27.446C22.3427 27.962 21.8987 28.382 21.3227 28.706C22.0427 28.838 22.5767 29.174 22.9247 29.714C23.2727 30.242 23.4467 30.872 23.4467 31.604C23.4467 32.288 23.3147 33.032 23.0507 33.836C22.7987 34.64 22.3727 35.336 21.7727 35.924C21.1847 36.5 20.4287 36.788 19.5047 36.788Z" fill="#160F29"/>
<path d="M25.8519 36.59C25.2759 36.59 24.8079 36.41 24.4479 36.05C24.0999 35.69 23.9259 35.15 23.9259 34.43C23.9259 34.13 23.9739 33.74 24.0699 33.26L25.2939 27.482H27.8859L26.5899 33.602C26.5539 33.782 26.5359 33.95 26.5359 34.106C26.5359 34.598 26.7159 34.844 27.0759 34.844C27.4119 34.844 27.6999 34.706 27.9399 34.43C28.1799 34.142 28.3719 33.752 28.5159 33.26L29.7399 27.482H32.3319L31.0359 33.602C30.9879 33.782 30.9639 33.974 30.9639 34.178C30.9639 34.418 31.0179 34.592 31.1259 34.7C31.2459 34.796 31.4379 34.844 31.7019 34.844C32.0379 34.844 32.3259 34.7 32.5659 34.412C32.8179 34.124 33.0159 33.74 33.1599 33.26H33.9159C33.4719 34.556 32.9199 35.438 32.2599 35.906C31.6119 36.362 30.9579 36.59 30.2979 36.59C29.7819 36.59 29.3679 36.446 29.0559 36.158C28.7559 35.87 28.5759 35.444 28.5159 34.88C28.1079 35.54 27.6759 35.99 27.2199 36.23C26.7759 36.47 26.3199 36.59 25.8519 36.59Z" fill="#160F29"/>
<path d="M35.2098 36.59C34.6338 36.59 34.1478 36.482 33.7518 36.266C33.3558 36.038 33.0618 35.75 32.8698 35.402C32.6778 35.042 32.5818 34.67 32.5818 34.286C32.5818 33.89 32.6778 33.548 32.8698 33.26C33.0498 32.96 33.2718 32.744 33.5358 32.612C34.0038 31.772 34.4118 30.926 34.7598 30.074C35.1078 29.21 35.4378 28.28 35.7498 27.284L38.4138 26.924C38.4738 28.46 38.5758 30.122 38.7198 31.91C38.7798 32.63 38.8098 33.152 38.8098 33.476C38.8098 34.208 38.6238 34.808 38.2518 35.276C37.8798 35.744 37.4178 36.08 36.8658 36.284C36.3258 36.488 35.7738 36.59 35.2098 36.59ZM34.6338 35.168C35.0778 35.168 35.4498 35.036 35.7498 34.772C36.0498 34.508 36.1998 34.082 36.1998 33.494C36.1998 33.134 36.1638 32.63 36.0918 31.982C35.9718 30.614 35.8938 29.696 35.8578 29.228C35.5698 30.176 35.0838 31.31 34.3998 32.63C34.6758 32.774 34.8138 32.984 34.8138 33.26C34.8138 33.488 34.7358 33.692 34.5798 33.872C34.4358 34.052 34.2498 34.142 34.0218 34.142C33.7698 34.142 33.6078 34.064 33.5358 33.908C33.5358 34.34 33.6198 34.658 33.7878 34.862C33.9678 35.066 34.2498 35.168 34.6338 35.168Z" fill="#160F29"/>
</svg>
