<svg width="24" height="24" viewBox="0 0 24 24" fill="none" xmlns="http://www.w3.org/2000/svg">
<path d="M22 7V16C22 16.71 21.62 17.36 21 17.72V19.25C21 19.66 20.66 20 20.25 20H19.75C19.34 20 19 19.66 19 19.25V18H12V19.25C12 19.66 11.66 20 11.25 20H10.75C10.34 20 10 19.66 10 19.25V17.72C9.39 17.36 9 16.71 9 16V7C9 4 12 4 15.5 4C19 4 22 4 22 7ZM13 15C13 14.45 12.55 14 12 14C11.45 14 11 14.45 11 15C11 15.55 11.45 16 12 16C12.55 16 13 15.55 13 15ZM20 15C20 14.45 19.55 14 19 14C18.45 14 18 14.45 18 15C18 15.55 18.45 16 19 16C19.55 16 20 15.55 20 15ZM20 7H11V11H20V7ZM7 9.5C6.97 8.12 5.83 7 4.45 7.05C3.787 7.06339 3.15647 7.33954 2.69703 7.81773C2.23759 8.29592 1.98687 8.937 2 9.6C2.01306 10.1672 2.2179 10.7132 2.5811 11.1491C2.94431 11.5849 3.44446 11.8849 4 12V20H5V12C6.18 11.76 7 10.71 7 9.5Z" fill="#435A7D"/>
</svg>
