<svg width="200" height="160" viewBox="0 0 200 160" fill="none" xmlns="http://www.w3.org/2000/svg">
<g clip-path="url(#clip0_976_8452)">
<path d="M33.5648 159.959C33.5648 159.959 30.6834 152.868 39.3273 147.55L33.5648 159.959Z" fill="#C5E3EF"/>
<path d="M30.0212 159.83C30.0212 159.83 29.1423 154.776 22.3393 154.819L30.0212 159.83Z" fill="#C5E3EF"/>
<path d="M130.04 159.959C130.04 159.959 127.159 152.868 135.803 147.55L130.04 159.959Z" fill="#C5E3EF"/>
<path d="M126.497 159.83C126.497 159.83 125.618 154.776 118.815 154.819L126.497 159.83Z" fill="#C5E3EF"/>
<path d="M127.667 114.047C141.499 114.047 152.713 102.836 152.713 89.0066C152.713 75.1772 141.499 63.9663 127.667 63.9663C113.834 63.9663 102.621 75.1772 102.621 89.0066C102.621 102.836 113.834 114.047 127.667 114.047Z" fill="#C5E3EF"/>
<path d="M127.736 89.0063H127.804L129.043 160H126.428L127.736 89.0063Z" fill="#C5E3EF"/>
<path d="M181.44 126.483C191.529 126.483 199.708 118.306 199.708 108.22C199.708 98.133 191.529 89.9561 181.44 89.9561C171.351 89.9561 163.172 98.133 163.172 108.22C163.172 118.306 171.351 126.483 181.44 126.483Z" fill="#C5E3EF"/>
<path d="M181.49 108.219H181.54L182.444 160H180.536L181.49 108.219Z" fill="#C5E3EF"/>
<path d="M80.2819 108.405C80.6319 108.365 80.9687 108.248 81.2688 108.064C81.5689 107.88 81.8248 107.632 82.0187 107.338C82.2126 107.044 82.3396 106.711 82.3908 106.362C82.4421 106.014 82.4163 105.658 82.3152 105.321L89.2594 100.314L85.1001 98.7344L79.1434 103.732C78.5878 103.939 78.1275 104.343 77.8498 104.866C77.5721 105.39 77.4962 105.998 77.6365 106.574C77.7768 107.15 78.1236 107.654 78.6112 107.992C79.0988 108.329 79.6932 108.476 80.2819 108.405H80.2819Z" fill="#F1BF9A"/>
<path d="M75.1911 157.524L72.9862 157.523L71.9371 149.021H75.1915L75.1911 157.524Z" fill="#F1BF9A"/>
<path d="M75.7534 159.661L68.6436 159.66V159.57C68.6437 158.837 68.9353 158.133 69.4542 157.614C69.9732 157.095 70.677 156.804 71.411 156.804H71.4111L75.7535 156.804L75.7534 159.661Z" fill="#2F2E41"/>
<path d="M58.349 157.524L56.1441 157.523L55.0953 149.021H58.3495L58.349 157.524Z" fill="#F1BF9A"/>
<path d="M58.9114 159.661L51.8017 159.66V159.57C51.8018 158.837 52.0933 158.133 52.6123 157.614C53.1313 157.095 53.8351 156.804 54.569 156.804H54.5692L58.9116 156.804L58.9114 159.661Z" fill="#2F2E41"/>
<path d="M60.0521 110.24L55.3793 135.789L53.7449 156.082L59.0512 155.821L62.0718 136.115L69.5797 118.957L71.8142 155.774L76.699 155.79L79.3273 109.218L60.0521 110.24Z" fill="#2F2E41"/>
<path d="M79.9255 80.9971L73.3758 78.3916L65.862 79.2511L59.4922 82.7716C59.4922 82.7716 61.4407 107.203 58.6163 112.934C58.6163 112.934 60.8793 116.068 70.0999 115.303C70.0999 115.303 79.0816 114.168 79.3043 111.223C79.5269 108.279 79.5739 102.925 79.5739 102.925L82.6916 92.1836L79.9255 80.9971Z" fill="#435A7D"/>
<path d="M62.0525 83.2423L59.4922 82.772C59.4922 82.772 56.768 83.9662 56.7959 87.5248C56.8239 91.0834 51.9832 103.014 57.7746 103.514C63.566 104.014 62.0525 95.0538 62.0525 95.0538V83.2423Z" fill="#435A7D"/>
<path d="M77.8481 82.513L79.9255 80.9971C79.9255 80.9971 83.0971 81.7134 84.2703 84.266C84.2703 84.266 97.2765 93.6968 93.6991 97.2734C90.1216 100.85 82.8292 105.252 82.8292 105.252L80.1291 102.196L86.8279 96.1284L81.3324 91.1231L77.8481 82.513Z" fill="#435A7D"/>
<path d="M74.5267 71.6179C74.5258 73.0431 73.9589 74.4096 72.9506 75.4171C71.9422 76.4245 70.5751 76.9904 69.1496 76.9904C67.724 76.9904 66.3569 76.4245 65.3486 75.4171C64.3402 74.4096 63.7733 73.0431 63.7724 71.6179V71.4116C63.8275 70.0054 64.4319 68.677 65.4558 67.7114C66.4796 66.7458 67.8414 66.2201 69.2487 66.2471C70.6559 66.2741 71.9965 66.8517 72.9825 67.8559C73.9686 68.86 74.5215 70.2107 74.5226 71.6179H74.5267Z" fill="#F1BF9A"/>
<path d="M69.9669 70.7514C70.3108 70.695 70.6837 70.6414 70.9919 70.7996C71.662 71.1421 71.5079 72.1133 71.8739 72.7543C72.0184 73.0088 72.2523 73.2165 72.3486 73.4917C72.4449 73.7668 72.3858 74.1107 72.5371 74.3762C72.7559 74.76 73.3489 74.8164 73.7383 74.5881C74.1066 74.333 74.3735 73.9566 74.4923 73.5247C74.6216 73.1588 74.7303 72.7543 75.0427 72.515C75.1562 72.4503 75.2581 72.3671 75.344 72.2687C75.4086 72.1385 75.4334 71.9921 75.4156 71.8478C75.4156 70.9179 75.2711 70.197 75.4816 69.296C75.8187 67.8433 76.1269 67.1252 75.0592 66.0481C74.5126 65.5035 73.8092 65.1437 73.0476 65.0191C72.3596 64.9063 71.3469 65.8665 70.6507 65.8445C68.8799 65.7744 67.3856 64.1346 65.6973 64.6642C64.9591 64.8961 64.3192 65.367 63.8783 66.0027C63.0528 67.2188 63.1271 67.6893 63.2468 69.1406C63.245 69.2507 63.2772 69.3588 63.339 69.4501C63.4009 69.5244 63.5013 69.5642 63.5619 69.6399C63.627 69.7399 63.6516 69.8609 63.6307 69.9783C63.6122 70.2147 63.557 70.4468 63.4669 70.6661C63.4442 70.7028 63.4302 70.7442 63.4259 70.7871C63.4216 70.83 63.4272 70.8733 63.4422 70.9138C63.476 70.9597 63.5246 70.9927 63.5798 71.0073C64.2677 71.2549 65.0107 70.7776 65.7468 70.79C66.483 70.8023 67.182 71.2948 67.9415 71.1875C68.6116 71.0843 69.2913 70.8628 69.9669 70.7514Z" fill="#2F2E41"/>
<path d="M69.9313 100.639C69.8854 100.656 69.8377 100.668 69.7891 100.675L63.8182 101.509C63.6738 101.529 63.5266 101.5 63.4009 101.426C63.2752 101.352 63.1784 101.237 63.1266 101.101L57.987 87.7304C57.9538 87.6438 57.9395 87.5511 57.9453 87.4586C57.9511 87.366 57.9768 87.2758 58.0206 87.1941C58.0645 87.1123 58.1254 87.041 58.1993 86.9849C58.2732 86.9289 58.3583 86.8894 58.4488 86.8692H58.4489L64.0639 85.6165C64.1072 85.6067 64.1491 85.5914 64.1885 85.5709L69.6499 82.7161C69.6921 82.694 69.7366 82.6767 69.7827 82.6645L75.7929 81.0626C75.9469 81.0212 76.1106 81.0384 76.2526 81.1108C76.3946 81.1832 76.5047 81.3057 76.5616 81.4545L81.0429 93.1128C81.0823 93.2143 81.0952 93.3242 81.0803 93.4321C81.0655 93.5401 81.0235 93.6424 80.9581 93.7296L79.4083 95.8104C79.3354 95.9083 79.2362 95.9835 79.1222 96.0272L75.7352 97.3286C75.7109 97.338 75.6874 97.3491 75.6648 97.3621L70.0208 100.596C69.9921 100.612 69.9622 100.627 69.9313 100.639Z" fill="#FCFCFC"/>
<path d="M72.7092 82.8448L71.946 83.0483L69.9234 83.5876L69.9198 83.5884L67.1508 85.036L66.1232 85.5733L66.1227 85.5734L64.5793 86.3801L64.537 86.3897L62.9337 86.7471L62.1588 86.9203L58.9983 87.6254L63.9599 100.533L67.2167 100.078L68.0152 99.9668L69.7173 99.729L69.737 99.7265L75.2063 96.5925L78.5339 95.314L80.0532 93.2742L75.7343 82.0386L72.7092 82.8448Z" fill="#94ABCF"/>
<path d="M76.4459 83.8896L59.9924 90.2114L60.2742 90.9444L76.7277 84.6226L76.4459 83.8896Z" fill="#FCFCFC"/>
<path d="M77.3851 86.3335L60.9316 92.6553L61.2134 93.3883L77.6669 87.0665L77.3851 86.3335Z" fill="#FCFCFC"/>
<path d="M79.2823 91.269L62.8289 97.5908L63.1106 98.3238L79.5641 92.002L79.2823 91.269Z" fill="#FCFCFC"/>
<path d="M72.7092 82.8452L77.635 95.6598L76.9019 95.9415L71.9459 83.0487L72.7092 82.8452Z" fill="#FCFCFC"/>
<path d="M67.1509 85.0361L66.1393 87.85L65.7887 88.8259L64.9706 91.1033L64.7952 91.59L64.6197 92.0793L64.3888 92.7215L62.7306 97.3353L62.2995 96.2137L63.6515 92.4514L63.9575 91.5995L64.0022 91.4753L64.3639 90.4681L64.8203 89.1981L65.1712 88.2218L66.1226 85.5737L66.1231 85.5735L67.1509 85.0361Z" fill="#FCFCFC"/>
<path d="M62.9338 86.7471L68.0151 99.9669L67.2166 100.078L62.1588 86.9203L62.9338 86.7471Z" fill="#FCFCFC"/>
<path d="M61.8461 99.4057C63.1379 99.4057 64.1852 98.3587 64.1852 97.0671C64.1852 95.7755 63.1379 94.7285 61.8461 94.7285C60.5542 94.7285 59.507 95.7755 59.507 97.0671C59.507 98.3587 60.5542 99.4057 61.8461 99.4057Z" fill="#F1BF9A"/>
<path d="M158.433 83.1157C181.39 83.1157 200 64.5096 200 41.5578C200 18.6061 181.39 0 158.433 0C135.476 0 116.866 18.6061 116.866 41.5578C116.866 64.5096 135.476 83.1157 158.433 83.1157Z" fill="#94ABCF"/>
<path opacity="0.1" d="M189.125 13.8003C193.002 22.8679 193.528 33.0185 190.609 42.4381C187.689 51.8578 181.515 59.9327 173.189 65.22C164.863 70.5073 154.928 72.6623 145.159 71.3001C135.389 69.9379 126.423 65.1471 119.862 57.7839C122.23 63.3238 125.775 68.2827 130.251 72.3169C134.727 76.3512 140.026 79.3643 145.782 81.1476C151.538 82.9309 157.614 83.4417 163.587 82.6446C169.56 81.8475 175.288 79.7616 180.375 76.5313C185.462 73.3011 189.785 69.0038 193.046 63.9372C196.307 58.8705 198.427 53.1557 199.259 47.1886C200.091 41.2216 199.616 35.1449 197.866 29.3797C196.116 23.6145 193.134 18.2986 189.125 13.8003Z" fill="#2B3240"/>
<path d="M158.319 41.5576H158.205L156.149 159.381H160.489L158.319 41.5576Z" fill="#94ABCF"/>
<path d="M188.658 159.883H0.225937C0.166015 159.883 0.108547 159.86 0.0661754 159.817C0.0238039 159.775 0 159.717 0 159.658C0 159.598 0.0238039 159.54 0.0661754 159.498C0.108547 159.455 0.166015 159.432 0.225937 159.432H188.658C188.718 159.432 188.775 159.455 188.818 159.498C188.86 159.54 188.884 159.598 188.884 159.658C188.884 159.717 188.86 159.775 188.818 159.817C188.775 159.86 188.718 159.883 188.658 159.883Z" fill="#CACACA"/>
<path d="M78.0093 59.5246L79.4785 59.8066C79.6678 56.9588 83.1481 56.5612 83.648 53.9567C84.022 52.0078 82.9144 50.5276 80.8466 50.1307C79.3774 49.8488 78.0986 50.3382 77.0693 51.0959L77.8493 52.1273C78.6201 51.5405 79.518 51.2719 80.4249 51.446C81.7128 51.6931 82.2173 52.6901 82.0132 53.7532C81.612 55.8439 78.1657 56.3582 78.0093 59.5246ZM77.9901 63.838C78.6431 63.9634 79.2859 63.554 79.4253 62.8275C79.5681 62.0834 79.1192 61.4829 78.4662 61.3575C77.7951 61.2287 77.1739 61.6239 77.031 62.368C76.8916 63.0944 77.319 63.7092 77.9901 63.838Z" fill="#2B3240"/>
</g>
<defs>
<clipPath id="clip0_976_8452">
<rect width="200" height="160" fill="white"/>
</clipPath>
</defs>
</svg>
